<svg width="160" height="75" viewBox="0 0 160 75" fill="none" xmlns="http://www.w3.org/2000/svg">
<path d="M3.82908 46C3.34222 46 2.98695 45.8882 2.76326 45.6645C2.53956 45.4408 2.42772 45.0855 2.42772 44.5986V22.8281C2.42772 22.3413 2.53956 21.9926 2.76326 21.782C2.98695 21.5583 3.34222 21.4465 3.82908 21.4465H11.6846C14.0926 21.4465 16.1322 21.9202 17.8033 22.8676C19.4875 23.8018 20.7573 25.1835 21.6126 27.0125C22.4811 28.8415 22.9153 31.0718 22.9153 33.7035C22.9153 36.3483 22.4811 38.5853 21.6126 40.4143C20.7573 42.2433 19.4875 43.6315 17.8033 44.5789C16.1322 45.5263 14.0926 46 11.6846 46H3.82908ZM11.6846 41.4012C13.5531 41.4012 14.9676 40.7498 15.9282 39.4471C16.8888 38.1313 17.369 36.2168 17.369 33.7035C17.369 31.2034 16.8888 29.302 15.9282 27.9994C14.9676 26.6835 13.5531 26.0256 11.6846 26.0256H7.87528V41.4012H11.6846ZM28.7181 46.0987C28.0076 46.0987 27.4747 46 27.1194 45.8026C26.7773 45.6052 26.6062 45.3223 26.6062 44.9539V22.4926C26.6062 21.7162 27.3102 21.3281 28.7181 21.3281H29.9419C30.6656 21.3281 31.1919 21.4268 31.5209 21.6241C31.863 21.8215 32.034 22.111 32.034 22.4926V44.9539C32.034 45.7171 31.3366 46.0987 29.9419 46.0987H28.7181ZM47.4293 46.2961C43.4818 46.2961 40.5672 45.2697 38.6856 43.217C36.8171 41.1643 35.8829 37.9734 35.8829 33.6443C35.8829 25.3151 39.7909 21.1504 47.607 21.1504C48.6728 21.1504 49.7912 21.2557 50.9623 21.4662C52.1466 21.6768 53.1335 21.9728 53.923 22.3544C54.7125 22.7229 55.1072 23.1373 55.1072 23.5979C55.1072 23.9268 54.9756 24.3611 54.7125 24.9006C54.4493 25.4269 54.1401 25.894 53.7848 26.3019C53.4295 26.7098 53.1137 26.9138 52.8374 26.9138C52.7585 26.9138 52.5677 26.848 52.265 26.7164C51.6071 26.4533 50.9163 26.2361 50.1926 26.0651C49.4689 25.8809 48.5741 25.7888 47.5083 25.7888C45.4424 25.7888 43.9095 26.4467 42.9094 27.7625C41.9225 29.0652 41.4291 31.0389 41.4291 33.6838C41.4291 36.3286 41.9291 38.3221 42.9292 39.6642C43.9292 41.0064 45.4293 41.6775 47.4293 41.6775C48.4425 41.6775 49.357 41.5919 50.1728 41.4209V36.9799H47.074C46.7056 36.9799 46.4359 36.8418 46.2648 36.5655C46.1069 36.2891 46.028 35.8417 46.028 35.2233V34.0983C46.028 33.493 46.1069 33.0522 46.2648 32.7758C46.4359 32.4995 46.7056 32.3614 47.074 32.3614H54.1993C54.6993 32.3614 55.0612 32.4732 55.2849 32.6969C55.5086 32.9074 55.6204 33.2561 55.6204 33.743V43.5131C55.6204 44.5657 54.7388 45.296 52.9756 45.7039C51.2124 46.0987 49.3636 46.2961 47.4293 46.2961ZM62.2325 46.0987C61.5219 46.0987 60.989 46 60.6337 45.8026C60.2916 45.6052 60.1206 45.3223 60.1206 44.9539V22.4926C60.1206 21.7162 60.8245 21.3281 62.2325 21.3281H63.4562C64.1799 21.3281 64.7063 21.4268 65.0352 21.6241C65.3773 21.8215 65.5484 22.111 65.5484 22.4926V44.9539C65.5484 45.7171 64.851 46.0987 63.4562 46.0987H62.2325ZM75.2198 46.0592C74.654 46.0592 74.2066 46 73.8776 45.8816C73.5487 45.75 73.3579 45.5658 73.3052 45.3289L67.759 22.8084C67.7064 22.6636 67.68 22.486 67.68 22.2755C67.68 21.986 67.8577 21.7623 68.213 21.6044C68.5814 21.4333 69.134 21.3478 69.8709 21.3478H70.7788C72.1473 21.3478 72.9302 21.7162 73.1276 22.4531L75.7527 33.743C75.7922 33.9404 75.9501 34.6838 76.2264 35.9733L76.8383 38.7958C76.9962 37.8352 77.2988 36.4997 77.7462 34.7891L78.0225 33.743L80.9239 22.0978C80.9766 21.8347 81.1608 21.6439 81.4766 21.5254C81.8055 21.407 82.2595 21.3478 82.8385 21.3478H84.1806C84.7596 21.3478 85.207 21.407 85.5228 21.5254C85.8517 21.6439 86.0425 21.8347 86.0952 22.0978L88.8782 33.743C89.2203 35.1904 89.6216 36.9536 90.0822 39.0326C90.1348 38.7958 90.319 37.9668 90.6348 36.5457L91.2664 33.743L93.9902 22.4531C94.1876 21.7162 94.9705 21.3478 96.339 21.3478H96.7337C97.4574 21.3478 97.9969 21.4333 98.3522 21.6044C98.7206 21.7623 98.9048 21.986 98.9048 22.2755C98.9048 22.3676 98.8983 22.4597 98.8851 22.5518C98.8719 22.6307 98.8588 22.7163 98.8456 22.8084L93.1217 45.3289C93.0559 45.5658 92.8454 45.75 92.4901 45.8816C92.1349 46 91.7006 46.0592 91.1875 46.0592H88.6216C88.1084 46.0592 87.6742 46 87.3189 45.8816C86.9636 45.75 86.7597 45.5658 86.707 45.3289L83.8254 33.1903L83.2727 30.8021L82.6608 33.1903L79.6805 45.3289C79.6147 45.5658 79.4041 45.75 79.0489 45.8816C78.6936 46 78.2594 46.0592 77.7462 46.0592H75.2198ZM99.8522 46.0592C98.418 46.0592 97.7009 45.8026 97.7009 45.2894C97.7009 45.1447 97.7469 44.9342 97.839 44.6578L105.576 22.0978C105.76 21.5978 106.425 21.3478 107.57 21.3478H109.385C110.53 21.3478 111.195 21.5978 111.379 22.0978L119.116 44.6578C119.182 44.921 119.215 45.1315 119.215 45.2894C119.215 45.5526 119.07 45.75 118.781 45.8816C118.504 46 118.063 46.0592 117.458 46.0592H115.919C115.366 46.0592 114.919 46.0066 114.576 45.9013C114.247 45.7829 114.044 45.5921 113.965 45.3289L112.543 41.0459H104.273L102.852 45.3289C102.708 45.8158 102.168 46.0592 101.234 46.0592H99.8522ZM111.043 36.4076L109.05 30.1705C108.932 29.8547 108.826 29.4928 108.734 29.0849C108.655 28.677 108.583 28.2888 108.517 27.9204H108.379L108.3 28.3546C108.168 29.131 108.017 29.7363 107.846 30.1705L105.774 36.4076H111.043ZM128.018 46.0592C127.452 46.0592 127.005 46.0066 126.676 45.9013C126.347 45.7829 126.143 45.5921 126.064 45.3289L118.484 22.7689C118.379 22.4531 118.327 22.2426 118.327 22.1373C118.327 21.611 119.044 21.3478 120.478 21.3478H121.623C122.794 21.3478 123.485 21.6965 123.695 22.3939L128.432 37.5721L128.827 38.7958H128.965L129.36 37.5721L134.215 22.3939C134.452 21.6965 135.15 21.3478 136.307 21.3478H137.373C138.781 21.3478 139.485 21.611 139.485 22.1373C139.485 22.3742 139.446 22.5847 139.367 22.7689L131.788 45.3289C131.709 45.5921 131.498 45.7829 131.156 45.9013C130.827 46.0066 130.386 46.0592 129.834 46.0592H128.018ZM143.65 46C143.163 46 142.808 45.8882 142.584 45.6645C142.36 45.4408 142.248 45.0855 142.248 44.5986V22.8281C142.248 22.3413 142.36 21.9926 142.584 21.782C142.808 21.5583 143.163 21.4465 143.65 21.4465H156.499C156.867 21.4465 157.131 21.5847 157.288 21.861C157.46 22.1373 157.545 22.5847 157.545 23.2031V24.269C157.545 24.8874 157.46 25.3348 157.288 25.6111C157.131 25.8874 156.867 26.0256 156.499 26.0256H147.657V31.1179H155.552C155.92 31.1179 156.183 31.2561 156.341 31.5324C156.512 31.8087 156.598 32.2561 156.598 32.8745V33.9601C156.598 34.5785 156.512 35.0259 156.341 35.3023C156.183 35.5786 155.92 35.7167 155.552 35.7167H147.657V41.4012H156.519C156.887 41.4012 157.15 41.5393 157.308 41.8156C157.479 42.092 157.565 42.5328 157.565 43.1381V44.2434C157.565 44.8618 157.479 45.3092 157.308 45.5855C157.15 45.8618 156.887 46 156.519 46H143.65Z" fill="white"/>
<path d="M13.605 67.0224C13.4206 67.0224 13.2861 67 13.2014 66.9552C13.1167 66.9053 13.0743 66.8306 13.0743 66.7309V58.7112H10.5182C10.4235 58.7112 10.3562 58.6788 10.3164 58.614C10.2765 58.5492 10.2566 58.4496 10.2566 58.315V58.0983C10.2566 57.9588 10.2765 57.8591 10.3164 57.7993C10.3562 57.7345 10.4235 57.7021 10.5182 57.7021H16.7516C16.8463 57.7021 16.9135 57.7345 16.9534 57.7993C16.9933 57.8591 17.0132 57.9588 17.0132 58.0983V58.315C17.0132 58.4496 16.9933 58.5492 16.9534 58.614C16.9135 58.6788 16.8463 58.7112 16.7516 58.7112H14.2478V66.7309C14.2478 66.9253 14.0684 67.0224 13.7096 67.0224H13.605ZM23.1043 67C22.9648 67 22.8627 66.9676 22.7979 66.9028C22.7331 66.8381 22.7007 66.7384 22.7007 66.6039V58.0983C22.7007 57.9588 22.7331 57.8591 22.7979 57.7993C22.8627 57.7345 22.9648 57.7021 23.1043 57.7021H27.7383C27.833 57.7021 27.9002 57.732 27.9401 57.7918C27.985 57.8516 28.0074 57.9538 28.0074 58.0983V58.315C28.0074 58.4496 27.985 58.5492 27.9401 58.614C27.9002 58.6788 27.833 58.7112 27.7383 58.7112H23.8742V61.7382H27.3422C27.4369 61.7382 27.5041 61.7706 27.544 61.8354C27.5888 61.9001 27.6112 62.0023 27.6112 62.1418V62.3436C27.6112 62.4831 27.5888 62.5853 27.544 62.65C27.5041 62.7098 27.4369 62.7397 27.3422 62.7397H23.8742V65.991H27.7533C27.8479 65.991 27.9152 66.0234 27.9551 66.0882C27.9999 66.1479 28.0223 66.2476 28.0223 66.3871V66.6039C28.0223 66.7384 27.9999 66.8381 27.9551 66.9028C27.9152 66.9676 27.8479 67 27.7533 67H23.1043ZM37.8505 67.0747C36.3956 67.0747 35.3193 66.6911 34.6217 65.9237C33.9241 65.1564 33.5753 63.963 33.5753 62.3436C33.5753 59.1895 35.0079 57.6125 37.873 57.6125C38.2915 57.6125 38.6976 57.6573 39.0913 57.747C39.4849 57.8317 39.8038 57.9388 40.0479 58.0684C40.2921 58.1979 40.4142 58.3225 40.4142 58.4421C40.4142 58.5168 40.3868 58.6165 40.332 58.7411C40.2821 58.8656 40.2223 58.9752 40.1526 59.0699C40.0828 59.1646 40.0205 59.2119 39.9657 59.2119C39.9408 59.2119 39.8711 59.1795 39.7565 59.1148C39.4973 58.9752 39.2258 58.8582 38.9418 58.7635C38.6578 58.6688 38.3114 58.6215 37.9029 58.6215C36.8316 58.6215 36.0418 58.9204 35.5336 59.5184C35.0303 60.1113 34.7787 61.058 34.7787 62.3585C34.7787 63.6292 35.0278 64.5659 35.5261 65.1688C36.0293 65.7668 36.8042 66.0657 37.8505 66.0657C38.289 66.0657 38.6652 66.0134 38.9791 65.9088C39.2931 65.8041 39.5945 65.6746 39.8835 65.5201C40.023 65.4454 40.1077 65.408 40.1376 65.408C40.1924 65.408 40.2547 65.4553 40.3245 65.55C40.3992 65.6447 40.464 65.7518 40.5188 65.8714C40.5736 65.986 40.601 66.0682 40.601 66.118C40.601 66.2426 40.474 66.3821 40.2199 66.5366C39.9707 66.6861 39.6344 66.8131 39.2108 66.9178C38.7923 67.0224 38.3389 67.0747 37.8505 67.0747ZM47.0061 67.0224C46.6473 67.0224 46.4679 66.9253 46.4679 66.7309V57.9637C46.4679 57.7644 46.6473 57.6648 47.0061 57.6648H47.1107C47.4645 57.6648 47.6414 57.7644 47.6414 57.9637V61.7232H52.4547V57.9637C52.4547 57.7644 52.6316 57.6648 52.9854 57.6648H53.09C53.4438 57.6648 53.6207 57.7644 53.6207 57.9637V66.7309C53.6207 66.8306 53.5784 66.9053 53.4937 66.9552C53.4089 67 53.2744 67.0224 53.09 67.0224H52.9854C52.801 67.0224 52.6665 67 52.5818 66.9552C52.4971 66.9053 52.4547 66.8306 52.4547 66.7309V62.7323H47.6414V66.7309C47.6414 66.9253 47.4645 67.0224 47.1107 67.0224H47.0061ZM60.7956 67.0224C60.6063 67.0224 60.4692 67 60.3845 66.9552C60.2998 66.9053 60.2575 66.8306 60.2575 66.7309V57.9637C60.2575 57.7644 60.4368 57.6648 60.7956 57.6648H61.0721C61.2117 57.6648 61.3213 57.6847 61.401 57.7246C61.4857 57.7644 61.5605 57.8292 61.6252 57.9189L65.8706 64.3243L66.2667 65.0717V57.9637C66.2667 57.7644 66.4411 57.6648 66.7899 57.6648H66.8945C67.2433 57.6648 67.4177 57.7644 67.4177 57.9637V66.7309C67.4177 66.8306 67.3754 66.9053 67.2906 66.9552C67.2059 67 67.0739 67.0224 66.8945 67.0224H66.6254C66.5009 67.0224 66.4012 67.0075 66.3265 66.9776C66.2517 66.9477 66.1944 66.9003 66.1546 66.8356L61.7747 60.2284L61.416 59.5408V66.7309C61.416 66.9253 61.2391 67.0224 60.8853 67.0224H60.7956ZM77.5972 67.0747C76.2668 67.0747 75.2528 66.6711 74.5552 65.8639C73.8576 65.0567 73.5088 63.8758 73.5088 62.3212C73.5088 60.7715 73.8551 59.6006 74.5478 58.8083C75.2453 58.0111 76.2618 57.6125 77.5972 57.6125C78.9376 57.6125 79.9566 58.0111 80.6541 58.8083C81.3517 59.6006 81.7005 60.7715 81.7005 62.3212C81.7005 63.8758 81.3517 65.0567 80.6541 65.8639C79.9566 66.6711 78.9376 67.0747 77.5972 67.0747ZM77.5972 66.0657C78.534 66.0657 79.2515 65.7468 79.7498 65.109C80.248 64.4663 80.4972 63.537 80.4972 62.3212C80.4972 61.1054 80.248 60.1861 79.7498 59.5632C79.2565 58.9354 78.539 58.6215 77.5972 58.6215C76.6604 58.6215 75.9454 58.9354 75.4521 59.5632C74.9588 60.1861 74.7122 61.1054 74.7122 62.3212C74.7122 63.542 74.9588 64.4712 75.4521 65.109C75.9454 65.7468 76.6604 66.0657 77.5972 66.0657ZM88.285 67C88.1454 67 88.0433 66.9676 87.9785 66.9028C87.9137 66.8381 87.8813 66.7384 87.8813 66.6039V57.9637C87.8813 57.7644 88.0607 57.6648 88.4195 57.6648H88.5241C88.8779 57.6648 89.0548 57.7644 89.0548 57.9637V65.991H92.7097C92.8043 65.991 92.8716 66.0234 92.9115 66.0882C92.9513 66.1479 92.9712 66.2476 92.9712 66.3871V66.6039C92.9712 66.7384 92.9513 66.8381 92.9115 66.9028C92.8716 66.9676 92.8043 67 92.7097 67H88.285ZM102.007 67.0747C100.677 67.0747 99.6628 66.6711 98.9652 65.8639C98.2676 65.0567 97.9188 63.8758 97.9188 62.3212C97.9188 60.7715 98.2651 59.6006 98.9578 58.8083C99.6553 58.0111 100.672 57.6125 102.007 57.6125C103.348 57.6125 104.367 58.0111 105.064 58.8083C105.762 59.6006 106.111 60.7715 106.111 62.3212C106.111 63.8758 105.762 65.0567 105.064 65.8639C104.367 66.6711 103.348 67.0747 102.007 67.0747ZM102.007 66.0657C102.944 66.0657 103.661 65.7468 104.16 65.109C104.658 64.4663 104.907 63.537 104.907 62.3212C104.907 61.1054 104.658 60.1861 104.16 59.5632C103.666 58.9354 102.949 58.6215 102.007 58.6215C101.07 58.6215 100.355 58.9354 99.8621 59.5632C99.3688 60.1861 99.1222 61.1054 99.1222 62.3212C99.1222 63.542 99.3688 64.4712 99.8621 65.109C100.355 65.7468 101.07 66.0657 102.007 66.0657ZM115.864 67.0747C114.529 67.0747 113.512 66.6911 112.815 65.9237C112.117 65.1514 111.768 63.9854 111.768 62.4258C111.768 59.2169 113.201 57.6125 116.066 57.6125C116.484 57.6125 116.89 57.6573 117.284 57.747C117.678 57.8317 117.997 57.9388 118.241 58.0684C118.485 58.1979 118.607 58.3225 118.607 58.4421C118.607 58.5168 118.58 58.6165 118.525 58.7411C118.475 58.8656 118.415 58.9752 118.345 59.0699C118.276 59.1646 118.213 59.2119 118.159 59.2119C118.134 59.2119 118.064 59.1795 117.949 59.1148C117.69 58.9752 117.419 58.8582 117.135 58.7635C116.851 58.6688 116.504 58.6215 116.096 58.6215C114.97 58.6215 114.167 58.9329 113.689 59.5557C113.211 60.1736 112.971 61.0904 112.971 62.3062C112.971 63.4523 113.193 64.3666 113.637 65.0492C114.085 65.7269 114.857 66.0657 115.954 66.0657C116.288 66.0657 116.609 66.0508 116.918 66.0209C117.232 65.986 117.481 65.9437 117.665 65.8938V63.2106H116.111C116.016 63.2106 115.946 63.1807 115.901 63.1209C115.862 63.0561 115.842 62.954 115.842 62.8145V62.5977C115.842 62.4582 115.862 62.3585 115.901 62.2988C115.946 62.234 116.016 62.2016 116.111 62.2016H118.435C118.575 62.2016 118.677 62.234 118.742 62.2988C118.806 62.3585 118.839 62.4582 118.839 62.5977V66.118C118.839 66.4619 118.56 66.7085 118.002 66.858C117.444 67.0025 116.731 67.0747 115.864 67.0747ZM125.901 67.0224C125.543 67.0224 125.363 66.9253 125.363 66.7309V57.9637C125.363 57.7644 125.543 57.6648 125.901 57.6648H126.006C126.36 57.6648 126.537 57.7644 126.537 57.9637V66.7309C126.537 66.9253 126.36 67.0224 126.006 67.0224H125.901ZM133.652 67C133.512 67 133.41 66.9676 133.345 66.9028C133.281 66.8381 133.248 66.7384 133.248 66.6039V58.0983C133.248 57.9588 133.281 57.8591 133.345 57.7993C133.41 57.7345 133.512 57.7021 133.652 57.7021H138.286C138.381 57.7021 138.448 57.732 138.488 57.7918C138.533 57.8516 138.555 57.9538 138.555 58.0983V58.315C138.555 58.4496 138.533 58.5492 138.488 58.614C138.448 58.6788 138.381 58.7112 138.286 58.7112H134.422V61.7382H137.89C137.984 61.7382 138.052 61.7706 138.092 61.8354C138.136 61.9001 138.159 62.0023 138.159 62.1418V62.3436C138.159 62.4831 138.136 62.5853 138.092 62.65C138.052 62.7098 137.984 62.7397 137.89 62.7397H134.422V65.991H138.301C138.395 65.991 138.463 66.0234 138.503 66.0882C138.547 66.1479 138.57 66.2476 138.57 66.3871V66.6039C138.57 66.7384 138.547 66.8381 138.503 66.9028C138.463 66.9676 138.395 67 138.301 67H133.652ZM146.604 67.0747C146.116 67.0747 145.66 67.0224 145.237 66.9178C144.818 66.8082 144.482 66.6786 144.228 66.5291C143.978 66.3747 143.854 66.2351 143.854 66.1106C143.854 66.0408 143.881 65.9486 143.936 65.834C143.996 65.7194 144.063 65.6173 144.138 65.5276C144.213 65.4379 144.272 65.3931 144.317 65.3931C144.357 65.3931 144.444 65.4329 144.579 65.5126C144.888 65.6721 145.194 65.8041 145.498 65.9088C145.802 66.0134 146.171 66.0657 146.604 66.0657C146.943 66.0657 147.245 66.001 147.509 65.8714C147.773 65.7419 147.977 65.56 148.122 65.3258C148.271 65.0866 148.346 64.8126 148.346 64.5036C148.346 64.1748 148.256 63.9032 148.077 63.6889C147.902 63.4697 147.688 63.2978 147.434 63.1732C147.185 63.0437 146.821 62.8842 146.343 62.6949C145.824 62.4956 145.413 62.3112 145.109 62.1418C144.811 61.9674 144.554 61.7158 144.34 61.3869C144.13 61.058 144.026 60.6221 144.026 60.0789C144.026 59.6056 144.148 59.182 144.392 58.8083C144.636 58.4296 144.982 58.1357 145.431 57.9264C145.879 57.7171 146.395 57.6125 146.978 57.6125C147.242 57.6125 147.544 57.6498 147.882 57.7246C148.221 57.7943 148.51 57.8915 148.749 58.0161C148.994 58.1406 149.116 58.2777 149.116 58.4271C149.116 58.4919 149.088 58.5816 149.033 58.6962C148.984 58.8058 148.924 58.9055 148.854 58.9952C148.784 59.0849 148.729 59.1297 148.69 59.1297C148.645 59.1297 148.555 59.0923 148.421 59.0176C148.196 58.898 147.975 58.8033 147.755 58.7336C147.536 58.6588 147.27 58.6215 146.956 58.6215C146.442 58.6215 146.026 58.7535 145.707 59.0176C145.393 59.2817 145.237 59.6504 145.237 60.1238C145.237 60.4078 145.306 60.642 145.446 60.8263C145.585 61.0107 145.762 61.1577 145.976 61.2673C146.191 61.3769 146.49 61.504 146.873 61.6485C146.898 61.6535 146.956 61.6734 147.045 61.7083C147.573 61.9126 148.004 62.1119 148.338 62.3062C148.677 62.4956 148.964 62.7696 149.198 63.1284C149.437 63.4871 149.557 63.9456 149.557 64.5036C149.557 65.0268 149.435 65.4827 149.19 65.8714C148.951 66.2601 148.607 66.559 148.159 66.7683C147.715 66.9726 147.197 67.0747 146.604 67.0747Z" fill="white"/>
</svg>
